<svg xmlns="http://www.w3.org/2000/svg" width="26.956" height="34.502" viewBox="0 0 26.956 34.502">
  <g id="Group_126" data-name="Group 126" transform="translate(0 0)">
    <path id="Path_240" data-name="Path 240" d="M155.994,79.835a2.342,2.342,0,1,0,2.342,2.342,2.345,2.345,0,0,0-2.342-2.342" transform="translate(-142.515 -71.872)" fill="#2c313b"/>
    <path id="Path_241" data-name="Path 241" d="M159.842,82.468c5.17-1.449,8.878-5.257,8.878-9.728a1.405,1.405,0,0,0-2.81,0c0,3.1-2.653,5.767-6.434,6.93a4.4,4.4,0,0,1,.366,2.8m.084,2.275a6.891,6.891,0,0,0-4.684,1.894,6.9,6.9,0,0,0-4.684-1.894c-4,0-7.26,3.585-7.26,7.991,0,6.891,7.4,11.228,10.576,12.774a3.3,3.3,0,0,0,2.684.083c2.493-1.029,10.628-4.993,10.628-12.858,0-4.406-3.257-7.991-7.26-7.991M149,95.768c-.605-2.023-1.1-2.514-3.12-3.12,2.023-.606,2.514-1.1,3.12-3.12.605,2.023,1.1,2.513,3.12,3.12-2.023.605-2.514,1.1-3.12,3.12m1.645-13.3a4.422,4.422,0,0,1,.366-2.8c-3.781-1.163-6.434-3.83-6.434-6.93a1.405,1.405,0,0,0-2.81,0c0,4.47,3.708,8.279,8.878,9.728" transform="translate(-141.764 -71.335)" fill="#2c313b"/>
  </g>
</svg>
