<svg xmlns="http://www.w3.org/2000/svg" width="37.472" height="26.311" viewBox="0 0 37.472 26.311">
  <g id="Group_122" data-name="Group 122" transform="translate(0)">
    <path id="Path_236" data-name="Path 236" d="M370.279,77.157a4.8,4.8,0,0,0-4.206-2.49H364.65a1.308,1.308,0,0,0,0,2.617h1.423a2.178,2.178,0,0,1,1.911,1.133l3.924,7.156c.825.189,1.625.4,2.341.584.365.1.776.2,1.122.289Zm-18.68-2.49h-1.423a4.8,4.8,0,0,0-4.206,2.49l-5.093,9.287c.346-.085.756-.192,1.122-.289.716-.188,1.516-.394,2.341-.584l3.924-7.156a2.178,2.178,0,0,1,1.911-1.133H351.6a1.308,1.308,0,0,0,0-2.617" transform="translate(-339.389 -74.667)" fill="#2c313b"/>
    <path id="Path_237" data-name="Path 237" d="M375.771,90.592c-.9,0-4.517-1.28-7.4-1.574h0a13.741,13.741,0,0,0-1.454-.072v0c-.034,0-.068,0-.1,0-.181,0-.361.009-.542.018-.135.006-.27.01-.4.021l-.083.008a20.942,20.942,0,0,0-5.525,1.281,6.569,6.569,0,0,1-4.733-.072,17.851,17.851,0,0,0-6.249-1.262l-.125,0-.045,0,0,0a13.448,13.448,0,0,0-2.418.178c-2.729.406-5.828,1.478-6.652,1.478a.871.871,0,0,0-.872.872v1.908a.871.871,0,0,0,.872.872h.3a6.8,6.8,0,0,0,1.046,4.38,7.992,7.992,0,0,0,7,4.169,8.589,8.589,0,0,0,2.215-.3,8.475,8.475,0,0,0,5.74-5.191c.192-.728.419-1.588.641-2.434a.959.959,0,0,1,1.857.01c.1.4.2.795.3,1.179h0a8.39,8.39,0,0,0,6.094,6.445,8.6,8.6,0,0,0,2.217.3,7.992,7.992,0,0,0,7-4.168,6.789,6.789,0,0,0,1.044-4.389h.27a.872.872,0,0,0,.872-.872V91.464a.873.873,0,0,0-.872-.872m-25.729,9.8a5.813,5.813,0,0,1-6.76-2.85c-1.032-1.8-1.08-3.28-.144-4.393,1.091-1.3,3.416-2.045,5.775-2.045a9.823,9.823,0,0,1,3.307.545c1.122.407,2.46,1.2,2.464,2.683a6.125,6.125,0,0,1-4.643,6.06m22.523-2.841a5.813,5.813,0,0,1-6.76,2.85,6.126,6.126,0,0,1-4.644-6.059c0-1.479,1.342-2.276,2.466-2.684,3.133-1.137,7.464-.424,9.081,1.5.937,1.112.89,2.59-.143,4.393" transform="translate(-339.171 -76.49)" fill="#2c313b"/>
  </g>
</svg>
