<svg xmlns="http://www.w3.org/2000/svg" width="28.388" height="36.346" viewBox="0 0 28.388 36.346">
  <g id="Group_125" data-name="Group 125" transform="translate(0 0)">
    <path id="Path_230" data-name="Path 230" d="M229.4,140.917l-1.04-2.137a.763.763,0,0,0-.687-.429h-6.529a.764.764,0,0,0-.661.382l-1.247,2.166a.763.763,0,0,0,.122.921l4.393,4.394a.763.763,0,0,0,1.08,0l4.422-4.423a.763.763,0,0,0,.147-.874" transform="translate(-210.109 -138.351)" fill="#2c313b"/>
    <path id="Path_231" data-name="Path 231" d="M233.73,150.869a9.311,9.311,0,0,1-1.96-2.336,2.556,2.556,0,0,1-.182-1.759,2.111,2.111,0,0,0,.068-.531,2.308,2.308,0,0,0-.034-.389,1.675,1.675,0,0,0-.215-.577,1.524,1.524,0,0,0-2.361-.184l-3.091,3.091a3.257,3.257,0,0,1-1.7.939,3.1,3.1,0,0,1-2.778-.857l-3.144-3.144a1.521,1.521,0,0,0-2.171-.033,1.651,1.651,0,0,0-.437,1.117v.037a2.325,2.325,0,0,0,.037.415,3.014,3.014,0,0,1-.182,1.937,9.495,9.495,0,0,1-1.907,2.252,14.242,14.242,0,0,0-3.779,13.5,12.97,12.97,0,0,0,1.493,3.684,14.239,14.239,0,0,0,24.59.018,12.9,12.9,0,0,0,1.5-3.684,14.227,14.227,0,0,0-3.752-13.492M230.182,169.1a10.447,10.447,0,0,1-16.935-8.192,10.377,10.377,0,0,1,3.06-7.388l.02-.02a5.872,5.872,0,0,1,4.156-1.636h6.424a5.872,5.872,0,0,1,4.156,1.636l.02.02a10.453,10.453,0,0,1-.9,15.58" transform="translate(-209.5 -138.747)" fill="#2c313b"/>
  </g>
</svg>
