<svg id="Group_121" data-name="Group 121" xmlns="http://www.w3.org/2000/svg" width="23.42" height="34.882" viewBox="0 0 23.42 34.882">
  <path id="Path_242" data-name="Path 242" d="M367.4,34.134H359.4a.409.409,0,0,0-.409.409v1.329a.442.442,0,0,0,.442.442h7.8a.442.442,0,0,0,.44-.4l.13-1.333a.409.409,0,0,0-.407-.449m-10.727,0h-7.99a.409.409,0,0,0-.406.449l.13,1.333a.442.442,0,0,0,.44.4h7.793a.442.442,0,0,0,.442-.442V34.543a.409.409,0,0,0-.409-.409m10.409-19.116a4.371,4.371,0,0,1-3.124-1.255,1.022,1.022,0,1,1,1.445-1.445,2.887,2.887,0,0,0,4.027-.365c.062-.063.111-.134.168-.2l-1.723-5.071a1.031,1.031,0,0,0-.977-.7h-7.457a.442.442,0,0,0-.442.442V10.79a.959.959,0,1,1-1.918,0V6.423a.443.443,0,0,0-.442-.442h-7.455a1.032,1.032,0,0,0-.977.7l-1.724,5.072c.058.066.106.137.169.2a2.887,2.887,0,0,0,4.027.365,1.022,1.022,0,1,1,1.445,1.445A4.371,4.371,0,0,1,349,15.018a5.269,5.269,0,0,1-2.67-.754l1.705,17.457a.408.408,0,0,0,.406.369h8.23a.408.408,0,0,0,.409-.409V19.323a.959.959,0,1,1,1.918,0V31.681a.408.408,0,0,0,.409.409h8.231a.408.408,0,0,0,.407-.369l1.7-17.457a5.264,5.264,0,0,1-2.669.754" transform="translate(-346.328 -1.432)" fill="#2c313b"/>
  <path id="Path_243" data-name="Path 243" d="M366.412.417H350.878a1.226,1.226,0,0,0,0,2.453h15.534a1.226,1.226,0,1,0,0-2.453" transform="translate(-346.934 -0.417)" fill="#2c313b"/>
</svg>
