<svg xmlns="http://www.w3.org/2000/svg" width="23.42" height="31.022" viewBox="0 0 23.42 31.022">
  <g id="Group_128" data-name="Group 128" transform="translate(0 0)">
    <path id="Path_226" data-name="Path 226" d="M85.881,205.977H74.115a.392.392,0,0,0-.392.392v2.353a.392.392,0,0,0,.392.392H85.881a.392.392,0,0,0,.392-.392v-2.353a.392.392,0,0,0-.392-.392" transform="translate(-73.723 -205.977)" fill="#2c313b"/>
    <path id="Path_227" data-name="Path 227" d="M73.723,225.949v2.966a3.173,3.173,0,0,0,3.173,3.173c.042,0,.082.013.123.014a7.063,7.063,0,0,0-3.3-6.153m20.395,1.432A52.966,52.966,0,0,0,87,222.19a1.562,1.562,0,0,1-.728-1.324v-8a.392.392,0,0,0-.392-.392H74.115a.392.392,0,0,0-.392.392v10.424a9.432,9.432,0,0,1,5.61,9.572l11.045,4.8c2.069,1.2,4.7.879,5.8-.663,1.965-2.754.757-6.889-2.06-9.626" transform="translate(-73.723 -207.378)" fill="#2c313b"/>
  </g>
</svg>
