<svg id="Group_165" data-name="Group 165" xmlns="http://www.w3.org/2000/svg" width="23.42" height="37.257" viewBox="0 0 23.42 37.257">
  <path id="Path_244" data-name="Path 244" d="M284.822,21.588h11.735a.662.662,0,0,0,.473-.194,8.99,8.99,0,0,0,2.672-6.257,6.849,6.849,0,0,0-.447-2.342V8.357A.856.856,0,0,0,298.4,7.5h-.856a.856.856,0,0,0-.857.856V10.6a7.941,7.941,0,0,0-6,4.539,7.942,7.942,0,0,0-6-4.539V8.357a.856.856,0,0,0-.856-.856h-.857a.856.856,0,0,0-.857.856v4.436a6.83,6.83,0,0,0-.448,2.342,8.99,8.99,0,0,0,2.672,6.257.662.662,0,0,0,.473.194M297.894,24.1a.826.826,0,0,0-.662-.323H284.147a.824.824,0,0,0-.662.323A24.449,24.449,0,0,0,278.98,37.9a.42.42,0,0,0,.419.431H301.98a.421.421,0,0,0,.42-.431A24.455,24.455,0,0,0,297.894,24.1" transform="translate(-278.98 -1.077)" fill="#2c313b"/>
  <path id="Path_245" data-name="Path 245" d="M295.769,6.847a8.157,8.157,0,0,0-2.978-.9l.006-.956a2.583,2.583,0,0,0,1.638-3.015,2.57,2.57,0,0,0-5.071.594.856.856,0,1,0,1.713,0A.854.854,0,0,1,291.4,1.9a.873.873,0,0,1,.746-.162.849.849,0,0,1,.618.619.858.858,0,0,1-.543,1.019,1.675,1.675,0,0,0-1.145,1.578v.96a8.281,8.281,0,0,0-2.94.764.856.856,0,1,0,.743,1.543,6.988,6.988,0,0,1,6.072.131.857.857,0,0,0,.818-1.506" transform="translate(-280.224 0)" fill="#2c313b"/>
</svg>
