<svg id="Group_127" data-name="Group 127" xmlns="http://www.w3.org/2000/svg" width="35.598" height="31.447" viewBox="0 0 35.598 31.447">
  <path id="Path_232" data-name="Path 232" d="M87.152,139.866c-5.57,0-9.553,3-10.912,7.913h2.769c1.4-3.812,4.853-5.275,8.143-5.275s6.745,1.463,8.143,5.275h2.769c-1.359-4.909-5.342-7.913-10.912-7.913" transform="translate(-69.353 -139.866)" fill="#2c313b"/>
  <path id="Path_233" data-name="Path 233" d="M74.906,161.917h9.98v-1.175a1.319,1.319,0,1,1,2.638,0v1.175H97.5a5.4,5.4,0,0,0,5.4-5.4v-3.387a1.758,1.758,0,0,0-1.758-1.758H71.259a1.758,1.758,0,0,0-1.758,1.758v3.387a5.4,5.4,0,0,0,5.405,5.4m29.046,5.56c-.387-2.179-.707-3.977-1.007-5.665a7.573,7.573,0,0,1-5.44,2.3H87.524v.736a1.319,1.319,0,0,1-2.638,0v-.736h-9.98a7.575,7.575,0,0,1-5.44-2.3c-.3,1.687-.619,3.485-1.007,5.665a4.118,4.118,0,0,0,3.449,4.61,166.363,166.363,0,0,0,28.6,0,4.117,4.117,0,0,0,3.449-4.61" transform="translate(-68.406 -141.256)" fill="#2c313b"/>
</svg>
