<svg id="Group_124" data-name="Group 124" xmlns="http://www.w3.org/2000/svg" width="27.167" height="26.391" viewBox="0 0 27.167 26.391">
  <path id="Path_238" data-name="Path 238" d="M275.152,82.8v6.986a.776.776,0,0,0,.776.776h8.538V81.25H276.7a1.552,1.552,0,0,0-1.552,1.552M276.7,93.281v6.21a1.552,1.552,0,0,0,1.552,1.552h6.21V92.5h-6.986a.776.776,0,0,0-.776.776m23.286-.776H293v8.538h6.21a1.552,1.552,0,0,0,1.552-1.552v-6.21a.776.776,0,0,0-.776-.776m.776-11.255H293v9.314h8.538a.776.776,0,0,0,.776-.776V82.8a1.552,1.552,0,0,0-1.552-1.552" transform="translate(-275.152 -74.652)" fill="#2c313b"/>
  <path id="Path_239" data-name="Path 239" d="M287.739,99.141H292.4V79.348h-4.657ZM289.1,75.906a3.156,3.156,0,0,0-3.155-3.156H281.5a.388.388,0,0,0-.274.663l1.392,1.392a.388.388,0,0,1,0,.549l-1.392,1.392a.388.388,0,0,0,.274.662h7.6Zm8.425-.553a.388.388,0,0,1,0-.549l1.392-1.392a.388.388,0,0,0-.275-.663h-4.446a3.156,3.156,0,0,0-3.155,3.156v1.5h7.6a.388.388,0,0,0,.275-.662Z" transform="translate(-276.485 -72.75)" fill="#2c313b"/>
</svg>
