<svg id="Group_130" data-name="Group 130" xmlns="http://www.w3.org/2000/svg" width="30.482" height="31.852" viewBox="0 0 30.482 31.852">
  <path id="Path_222" data-name="Path 222" d="M232.334,210.9l-1.836-1.874a.938.938,0,0,0-.67-.281h-11.5a.934.934,0,0,0-.669.281L215.82,210.9a.937.937,0,0,0,0,1.312l1.837,1.874a.934.934,0,0,0,.669.281h11.5a.938.938,0,0,0,.67-.281l1.836-1.874a.937.937,0,0,0,0-1.312" transform="translate(-208.835 -208.75)" fill="#2c313b"/>
  <path id="Path_223" data-name="Path 223" d="M238.506,229.264l-6.479-8.9a1.873,1.873,0,0,0-1.515-.771h-2.205v-1.874a.469.469,0,0,0-.468-.468h-8.431a.469.469,0,0,0-.468.468v1.874h-2.2a1.873,1.873,0,0,0-1.515.771l-6.479,8.9a1.873,1.873,0,0,0,0,2.205l6.479,8.9a1.873,1.873,0,0,0,1.515.771h13.778a1.873,1.873,0,0,0,1.515-.771l6.479-8.9a1.876,1.876,0,0,0,0-2.205m-19.854,7.7a1.171,1.171,0,0,1-1.624-.325l-1.874-2.81a1.171,1.171,0,0,1,1.949-1.3l1.874,2.81a1.172,1.172,0,0,1-.324,1.624m1.238-12.033-3.127,4.669a1.171,1.171,0,1,1-1.946-1.3l3.127-4.67a1.171,1.171,0,0,1,1.946,1.3" transform="translate(-208.382 -209.287)" fill="#2c313b"/>
</svg>
