<svg id="Group_129" data-name="Group 129" xmlns="http://www.w3.org/2000/svg" width="36.531" height="27.167" viewBox="0 0 36.531 27.167">
  <path id="Path_224" data-name="Path 224" d="M144.324,229.75h-6.082a.452.452,0,0,0-.46.529l1.695,8.476a.463.463,0,0,0,.46.363h2.4a.458.458,0,0,0,.468-.446v-4.825a4.224,4.224,0,0,1,1.66-3.65.243.243,0,0,0-.145-.447" transform="translate(-137.193 -212.419)" fill="#2c313b"/>
  <path id="Path_225" data-name="Path 225" d="M169.352,231.777l-1.224-.289a18.663,18.663,0,0,1-8.719-4.781h-5.392a1.405,1.405,0,0,1,0-2.81h3L157,223.88a1.4,1.4,0,0,0-.173-2.794h-4.684a1.405,1.405,0,0,1,0-2.81h2.215l-2.115-6.7a.469.469,0,0,0-.447-.328H141.177a.464.464,0,0,0-.414.248,33.624,33.624,0,0,0-3.609,14.259.477.477,0,0,0,.475.482h7.016c6.208,0,6.558,12.178,12.178,12.178h15.926a.937.937,0,0,0,.937-.937v-.232a5.621,5.621,0,0,0-4.334-5.471" transform="translate(-137.154 -211.25)" fill="#2c313b"/>
</svg>
