<svg xmlns="http://www.w3.org/2000/svg" width="24.839" height="25" viewBox="0 0 24.839 25">
  <g id="Instagram" transform="translate(-1354.66 -4481)">
    <rect id="Rectangle_12_copy_3" data-name="Rectangle 12 copy 3" width="24.839" height="25" rx="12.42" transform="translate(1354.66 4481)" fill="#020814"/>
    <path id="Shape_16_copy_2" data-name="Shape 16 copy 2" d="M1372.042,4488.308h-7.7a2.436,2.436,0,0,0-2.427,2.439v7.745a2.436,2.436,0,0,0,2.427,2.439h7.7a2.436,2.436,0,0,0,2.427-2.439v-7.745A2.436,2.436,0,0,0,1372.042,4488.308Zm.7,1.455h.278v2.14l-2.122.006-.007-2.14Zm-6.34,3.562a2.22,2.22,0,1,1-.418,1.3A2.2,2.2,0,0,1,1366.4,4493.325Zm6.847,5.168a1.207,1.207,0,0,1-1.2,1.209h-7.7a1.207,1.207,0,0,1-1.2-1.209v-5.168h1.875a3.433,3.433,0,1,0,6.361,0h1.875Z" transform="translate(-1.112 -1.121)" fill="#fff"/>
  </g>
</svg>
