<svg id="love" xmlns="http://www.w3.org/2000/svg" width="21.5" height="18.5" viewBox="0 0 21.5 18.5">
  <path id="Vector" d="M10.75,3.091l-.537.524a.75.75,0,0,0,1.074,0Zm.685-.7.537.524h0Zm-1.37,0,.537-.524h0ZM2.2,10.149l-.557.5ZM7.93,16.487l-.557.5Zm5.639,0,.557.5h0ZM19.3,10.149l.556.5h0Zm-.144-7.76-.537.524Zm-16.8,0,.537.524Zm13.4.75a.75.75,0,1,0,0,1.5ZM17,5.889a.75.75,0,0,0,1.5,0ZM11.287,3.615l.685-.7L10.9,1.865l-.685.7Zm-1.759-.7.685.7,1.074-1.047-.685-.7ZM1.647,10.652,7.374,16.99l1.113-1.006L2.76,9.646ZM14.126,16.99l5.726-6.338L18.74,9.646l-5.726,6.338ZM18.615,2.913a4.949,4.949,0,0,1,.125,6.734l1.113,1.006a6.449,6.449,0,0,0-.164-8.786Zm1.074-1.047a6.111,6.111,0,0,0-8.791,0l1.074,1.047a4.611,4.611,0,0,1,6.643,0ZM2.885,2.913a4.611,4.611,0,0,1,6.643,0L10.6,1.865a6.111,6.111,0,0,0-8.791,0ZM7.374,16.99a4.529,4.529,0,0,0,6.752,0l-1.113-1.006a3.029,3.029,0,0,1-4.526,0ZM1.811,1.865a6.449,6.449,0,0,0-.164,8.786L2.76,9.646a4.949,4.949,0,0,1,.125-6.734ZM15.75,4.639A1.25,1.25,0,0,1,17,5.889h1.5a2.75,2.75,0,0,0-2.75-2.75Z" transform="translate(0 0)" fill="#020814"/>
</svg>
