<svg xmlns="http://www.w3.org/2000/svg" width="14.69" height="11.677" viewBox="0 0 14.69 11.677">
  <g id="Group_22" data-name="Group 22" transform="translate(-1529.655 -84)">
    <g id="Component_55_4" data-name="Component 55 – 4" transform="translate(1529.655 84)">
      <path id="Vector" d="M.958,0A.94.94,0,0,0,0,.922a.94.94,0,0,0,.958.922ZM7.345,1.844A.94.94,0,0,0,8.3.922.94.94,0,0,0,7.345,0ZM.958,4.917a.923.923,0,1,0,0,1.844ZM13.732,6.76a.923.923,0,1,0,0-1.844ZM7.345,9.833a.923.923,0,1,0,0,1.844Zm6.387,1.844a.923.923,0,1,0,0-1.844ZM.958,1.844H7.345V0H.958Zm0,4.917H13.732V4.917H.958Zm6.387,4.917h6.387V9.833H7.345Z" fill="#020814"/>
    </g>
  </g>
</svg>
