<svg xmlns="http://www.w3.org/2000/svg" width="24.839" height="25" viewBox="0 0 24.839 25">
  <g id="RSS" transform="translate(-1197 -4480.87)">
    <rect id="Rectangle_12_copy_4" data-name="Rectangle 12 copy 4" width="24.839" height="25" rx="12.42" transform="translate(1197 4480.87)" fill="#f66"/>
    <path id="icon_copy_2" data-name="icon copy 2" d="M9.532,11.869A9.568,9.568,0,0,0,0,2.286V0A11.839,11.839,0,0,1,11.807,11.869Zm-4.134,0A5.42,5.42,0,0,0,0,6.441V4.155a7.694,7.694,0,0,1,7.673,7.715ZM0,10.472a1.388,1.388,0,1,1,1.388,1.4A1.392,1.392,0,0,1,0,10.472Z" transform="translate(1203.405 4487.39)" fill="#fff"/>
  </g>
</svg>
