<svg id="search_01" data-name="search 01" xmlns="http://www.w3.org/2000/svg" width="19" height="19" viewBox="0 0 19 19">
  <path id="Vector" d="M17.869,18.806a.663.663,0,1,0,.937-.937Zm-.83-2.7a.663.663,0,0,0-.937.937ZM1.326,9.058A7.733,7.733,0,0,1,9.058,1.326V0A9.058,9.058,0,0,0,0,9.058ZM9.058,1.326a7.733,7.733,0,0,1,7.733,7.733h1.326A9.058,9.058,0,0,0,9.058,0Zm7.733,7.733a7.733,7.733,0,0,1-7.733,7.733v1.326a9.058,9.058,0,0,0,9.058-9.058ZM9.058,16.791A7.733,7.733,0,0,1,1.326,9.058H0a9.058,9.058,0,0,0,9.058,9.058Zm9.748,1.078L17.039,16.1l-.937.937,1.767,1.767Z" fill="#020814"/>
</svg>
