<svg id="shopping_bag" data-name="shopping bag" xmlns="http://www.w3.org/2000/svg" width="20.059" height="19.5" viewBox="0 0 20.059 19.5">
  <path id="Rectangle_773" data-name="Rectangle 773" d="M.75,1.75h0Zm.75-1A.75.75,0,0,0,0,.75Zm6,0A.75.75,0,0,0,6,.75Zm-.75,1h0Zm-3,3v0Zm-2.25-3v-1H0v1ZM6,.75v1H7.5v-1ZM3.75,4A2.25,2.25,0,0,1,1.5,1.75H0A3.75,3.75,0,0,0,3.75,5.5Zm0,1.5A3.75,3.75,0,0,0,7.5,1.75H6A2.25,2.25,0,0,1,3.75,4Z" transform="translate(6.279 3)" fill="#020814"/>
  <path id="Rectangle_772" data-name="Rectangle 772" d="M17.586,4.092l.74-.123h0Zm1.667,10-.74.123h0Zm-16.781-10-.74-.123h0Zm-1.667,10,.74.123h0ZM6.418,1.5h7.223V0H6.418ZM16.847,4.216l1.667,10,1.48-.247-1.667-10ZM15.307,18H4.751v1.5H15.307ZM1.732,3.969l-1.667,10,1.48.247,1.667-10ZM6.418,0A4.75,4.75,0,0,0,1.732,3.969l1.48.247A3.25,3.25,0,0,1,6.418,1.5Zm7.223,1.5a3.25,3.25,0,0,1,3.206,2.716l1.48-.247A4.75,4.75,0,0,0,13.641,0Zm4.873,12.716A3.25,3.25,0,0,1,15.307,18v1.5a4.75,4.75,0,0,0,4.685-5.531ZM4.751,18a3.25,3.25,0,0,1-3.206-3.784l-1.48-.247A4.75,4.75,0,0,0,4.751,19.5Z" fill="#020814"/>
</svg>
