<svg xmlns="http://www.w3.org/2000/svg" width="24.865" height="25" viewBox="0 0 24.865 25">
  <g id="Twitter" transform="translate(-1275.66 -4481)">
    <rect id="Rectangle_12_copy" data-name="Rectangle 12 copy" width="24.865" height="25" rx="12.432" transform="translate(1275.66 4481)" fill="#020814"/>
    <path id="Shape_1_copy_54" data-name="Shape 1 copy 54" d="M1294.215,4491.564a3.525,3.525,0,0,0,1.356-.363s-.093.33-1.258,1.374a6.842,6.842,0,0,1-5.58,7.012,7.226,7.226,0,0,1-5.224-.993,4.329,4.329,0,0,0,3.59-1.01,2.354,2.354,0,0,1-2.195-1.667,2.02,2.02,0,0,0,1-.034,2.39,2.39,0,0,1-1.855-2.423,1.593,1.593,0,0,0,.97.3,2.59,2.59,0,0,1-.647-3.215s2.28,2.667,5.105,2.508a2.378,2.378,0,0,1-.076-.6,2.433,2.433,0,0,1,4.159-1.683,2.809,2.809,0,0,0,1.651-.522S1295.254,4490.769,1294.215,4491.564Z" transform="translate(-1.204 -1.39)" fill="#fff"/>
  </g>
</svg>
