<svg id="user" xmlns="http://www.w3.org/2000/svg" width="15.5" height="19.5" viewBox="0 0 15.5 19.5">
  <path id="Vector" d="M11,4.75A3.25,3.25,0,0,1,7.75,8V9.5A4.75,4.75,0,0,0,12.5,4.75ZM7.75,8A3.25,3.25,0,0,1,4.5,4.75H3A4.75,4.75,0,0,0,7.75,9.5ZM4.5,4.75A3.25,3.25,0,0,1,7.75,1.5V0A4.75,4.75,0,0,0,3,4.75ZM7.75,1.5A3.25,3.25,0,0,1,11,4.75h1.5A4.75,4.75,0,0,0,7.75,0ZM14,15.25c0,.529-.449,1.211-1.636,1.8A10.613,10.613,0,0,1,7.75,18v1.5a12.092,12.092,0,0,0,5.285-1.1c1.346-.673,2.465-1.742,2.465-3.146ZM7.75,18a10.613,10.613,0,0,1-4.614-.946C1.949,16.461,1.5,15.779,1.5,15.25H0c0,1.4,1.118,2.472,2.465,3.146A12.091,12.091,0,0,0,7.75,19.5ZM1.5,15.25c0-.529.449-1.21,1.636-1.8A10.613,10.613,0,0,1,7.75,12.5V11a12.091,12.091,0,0,0-5.285,1.1C1.118,12.777,0,13.846,0,15.25ZM7.75,12.5a10.613,10.613,0,0,1,4.614.946C13.551,14.04,14,14.721,14,15.25h1.5c0-1.4-1.118-2.472-2.465-3.146A12.092,12.092,0,0,0,7.75,11Z" fill="#020814"/>
</svg>
