<svg xmlns="http://www.w3.org/2000/svg" width="13.486" height="13.486" viewBox="0 0 13.486 13.486">
  <g id="Group_3" data-name="Group 3" transform="translate(7712.117 4527.617)">
    <g id="Group_2" data-name="Group 2" transform="translate(-7712.117 -4527.617)">
      <g id="Huge-Icon_ecommerce_solid_badge-percent" data-name="Huge-Icon/ecommerce/solid/badge-percent" transform="translate(0 0)">
        <g id="badge_percent" data-name="badge percent">
          <path id="Combo_shape" data-name="Combo shape" d="M8.048.48a2.011,2.011,0,0,0-2.609,0L4.981.87a2.011,2.011,0,0,1-1.145.474l-.6.048A2.011,2.011,0,0,0,1.392,3.237l-.048.6A2.011,2.011,0,0,1,.87,4.981l-.39.458a2.011,2.011,0,0,0,0,2.609l.39.458A2.011,2.011,0,0,1,1.344,9.65l.048.6a2.011,2.011,0,0,0,1.845,1.845l.6.048a2.011,2.011,0,0,1,1.145.474l.458.39a2.011,2.011,0,0,0,2.609,0l.458-.39a2.011,2.011,0,0,1,1.145-.474l.6-.048a2.011,2.011,0,0,0,1.845-1.845l.048-.6a2.011,2.011,0,0,1,.474-1.145l.39-.458a2.011,2.011,0,0,0,0-2.609l-.39-.458a2.011,2.011,0,0,1-.474-1.145l-.048-.6a2.011,2.011,0,0,0-1.845-1.845l-.6-.048A2.011,2.011,0,0,1,8.505.87ZM4.732,5.4a.67.67,0,1,0-.67-.67A.67.67,0,0,0,4.732,5.4ZM9.425,8.754a.67.67,0,1,1-.67-.67A.67.67,0,0,1,9.425,8.754ZM9.11,5.087A.5.5,0,0,0,8.4,4.376L6.381,7.616l-2,.783a.5.5,0,0,0,.711.711Z" transform="translate(0 0)" fill="#21a4fb" fill-rule="evenodd"/>
          <circle id="Ellipse_1" data-name="Ellipse 1" cx="5.363" cy="5.363" r="5.363" transform="translate(1.715 1.38)" fill="#21a4fb"/>
        </g>
      </g>
    </g>
    <g id="Huge-icon_interface_outline_tick" data-name="Huge-icon/interface/outline/tick" transform="translate(-7708.027 -4523.139)">
      <path id="Vector_784" data-name="Vector 784" d="M.417,2.6a.226.226,0,0,0-.361.049A.367.367,0,0,0,.1,3.09ZM1.464,4.031l-.16.247h0ZM2.4,3.937,2.21,3.725h0ZM5.242.527A.369.369,0,0,0,5.222.081.225.225,0,0,0,4.86.1ZM.1,3.09,1.3,4.278l.321-.493L.417,2.6Zm2.5,1.059L5.242.527,4.86.1,2.21,3.725ZM1.3,4.278a.822.822,0,0,0,1.288-.13L2.21,3.725a.374.374,0,0,1-.586.059Z" transform="translate(0 0)" fill="#fff" stroke="#fff" stroke-width="0.5"/>
    </g>
  </g>
</svg>
